<svg width="20" height="20" viewBox="0 0 20 20" fill="none" xmlns="http://www.w3.org/2000/svg">
<path d="M3.91504 9.99925C3.91504 9.77575 4.00382 9.56141 4.16186 9.40338C4.31989 9.24534 4.53424 9.15656 4.75773 9.15656H8.68244V5.23185C8.68244 5.00836 8.77122 4.79401 8.92926 4.63598C9.08729 4.47794 9.30163 4.38916 9.52513 4.38916C9.74863 4.38916 9.96297 4.47794 10.121 4.63598C10.279 4.79401 10.3678 5.00836 10.3678 5.23185V9.15656H14.2925C14.516 9.15656 14.7304 9.24534 14.8884 9.40338C15.0464 9.56141 15.1352 9.77575 15.1352 9.99925C15.1352 10.2227 15.0464 10.4371 14.8884 10.5951C14.7304 10.7532 14.516 10.8419 14.2925 10.8419H10.3678V14.7666C10.3678 14.9901 10.279 15.2045 10.121 15.3625C9.96297 15.5206 9.74863 15.6093 9.52513 15.6093C9.30163 15.6093 9.08729 15.5206 8.92926 15.3625C8.77122 15.2045 8.68244 14.9901 8.68244 14.7666V10.8419H4.75773C4.53424 10.8419 4.31989 10.7532 4.16186 10.5951C4.00382 10.4371 3.91504 10.2227 3.91504 9.99925Z" fill="#32E100"/>
<path fill-rule="evenodd" clip-rule="evenodd" d="M4.26169 0.751214C7.75883 0.363528 11.2881 0.363528 14.7852 0.751214C16.838 0.980426 18.4953 2.59727 18.7358 4.66131C19.1515 8.20849 19.1515 11.7916 18.7358 15.3388C18.4942 17.4028 16.8369 19.0186 14.7852 19.2489C11.2881 19.6366 7.75883 19.6366 4.26169 19.2489C2.20889 19.0186 0.55159 17.4028 0.311141 15.3388C-0.103714 11.7917 -0.103714 8.20838 0.311141 4.66131C0.55159 2.59727 2.21001 0.980426 4.26169 0.751214ZM14.5987 2.42536C11.2255 2.05147 7.82138 2.05147 4.4482 2.42536C3.82376 2.49464 3.24091 2.77241 2.7938 3.21381C2.3467 3.6552 2.06146 4.23444 1.98417 4.85794C1.58456 8.27475 1.58456 11.7265 1.98417 15.1433C2.0617 15.7666 2.34704 16.3456 2.79412 16.7867C3.2412 17.2279 3.82393 17.5055 4.4482 17.5747C7.79313 17.9478 11.2538 17.9478 14.5987 17.5747C15.2228 17.5053 15.8053 17.2276 16.2521 16.7864C16.699 16.3453 16.9842 15.7664 17.0616 15.1433C17.4613 11.7265 17.4613 8.27475 17.0616 4.85794C16.9839 4.23501 16.6986 3.65642 16.2518 3.2155C15.805 2.77457 15.2226 2.49702 14.5987 2.42761" fill="#32E100"/>
</svg>
