<svg width="16" height="11" viewBox="0 0 16 11" fill="none" xmlns="http://www.w3.org/2000/svg">
<path fill-rule="evenodd" clip-rule="evenodd" d="M2.87 5.36557L4.84 7.33557C4.91369 7.40423 4.97279 7.48703 5.01378 7.57903C5.05477 7.67103 5.07681 7.77034 5.07859 7.87105C5.08037 7.97175 5.06184 8.07178 5.02412 8.16517C4.9864 8.25855 4.93026 8.34339 4.85904 8.41461C4.78782 8.48583 4.70299 8.54197 4.6096 8.57969C4.51621 8.61741 4.41618 8.63594 4.31548 8.63416C4.21477 8.63238 4.11546 8.61034 4.02346 8.56935C3.93146 8.52836 3.84866 8.46926 3.78 8.39557L0.53 5.14557L0 4.61557L0.53 4.08557L3.78 0.835569C3.92217 0.703089 4.11022 0.630966 4.30452 0.634394C4.49882 0.637822 4.68421 0.716534 4.82162 0.853947C4.95903 0.99136 5.03775 1.17675 5.04117 1.37105C5.0446 1.56535 4.97248 1.75339 4.84 1.89557L2.87 3.86557H12.75C13.612 3.86557 14.4386 4.20798 15.0481 4.81747C15.6576 5.42697 16 6.25362 16 7.11557C16 7.97752 15.6576 8.80417 15.0481 9.41367C14.4386 10.0232 13.612 10.3656 12.75 10.3656H10.75C10.5511 10.3656 10.3603 10.2866 10.2197 10.1459C10.079 10.0052 10 9.81448 10 9.61557C10 9.41666 10.079 9.22589 10.2197 9.08524C10.3603 8.94459 10.5511 8.86557 10.75 8.86557H12.75C13.2141 8.86557 13.6592 8.6812 13.9874 8.35301C14.3156 8.02482 14.5 7.5797 14.5 7.11557C14.5 6.65144 14.3156 6.20632 13.9874 5.87813C13.6592 5.54994 13.2141 5.36557 12.75 5.36557H2.87Z" fill="#32E100"/>
</svg>
