<svg width="24" height="25" viewBox="0 0 24 25" fill="none" xmlns="http://www.w3.org/2000/svg">
<path fill-rule="evenodd" clip-rule="evenodd" d="M15.74 17.3214H10.24C9.826 17.3214 9.49 16.9865 9.49 16.574C9.49 16.1614 9.826 15.8266 10.24 15.8266H15.74C16.154 15.8266 16.49 16.1614 16.49 16.574C16.49 16.9865 16.154 17.3214 15.74 17.3214ZM8.5 10.0357C8.5 10.3117 8.275 10.5339 8 10.5339H4C3.723 10.5339 3.5 10.3117 3.5 10.0357V7.54431C3.5 7.27026 3.723 7.04604 4 7.04604H8C8.275 7.04604 8.5 7.27026 8.5 7.54431V10.0357ZM7.24 17.3214H4.24C3.826 17.3214 3.49 16.9865 3.49 16.574C3.49 16.1614 3.826 15.8266 4.24 15.8266H7.24C7.654 15.8266 7.99 16.1614 7.99 16.574C7.99 16.9865 7.654 17.3214 7.24 17.3214ZM21.5 4.55469H2.5C1.672 4.55469 1 5.22436 1 6.0495V19.0045C1 19.8306 1.672 20.4993 2.5 20.4993H21.5C22.329 20.4993 23 19.8306 23 19.0045V6.0495C23 5.22436 22.329 4.55469 21.5 4.55469Z" fill="#4D4D4D"/>
</svg>
