<svg width="24" height="25" viewBox="0 0 24 25" fill="none" xmlns="http://www.w3.org/2000/svg">
<path fill-rule="evenodd" clip-rule="evenodd" d="M8.3752 8.43128C8.3752 6.43447 10.0009 4.81042 12 4.81042C13.9991 4.81042 15.6248 6.43447 15.6248 8.43128V10.2318H8.3752V8.43128ZM18.3434 10.2318H17.4372V8.43129C17.4372 5.43652 14.9986 3 12 3C9.00139 3 6.5628 5.43652 6.5628 8.43129V10.2318H5.6566C4.90627 10.2318 4.2973 10.8398 4.2973 11.5898V20.642C4.2973 21.392 4.90627 22 5.6566 22H18.3434C19.0937 22 19.7027 21.392 19.7027 20.642V11.5898C19.7027 10.8398 19.0937 10.2318 18.3434 10.2318ZM12.9062 16.3172V18.3791C12.9062 18.8786 12.5002 19.2839 12 19.2839C11.4989 19.2839 11.0938 18.8786 11.0938 18.3791V16.3172C10.5537 16.0041 10.1876 15.4269 10.1876 14.7583C10.1876 13.7585 10.9986 12.9479 12 12.9479C13.0004 12.9479 13.8124 13.7585 13.8124 14.7583C13.8124 15.4269 13.4454 16.0041 12.9062 16.3172Z" fill="#4D4D4D"/>
</svg>
