<svg width="27" height="28" viewBox="0 0 27 28" fill="none" xmlns="http://www.w3.org/2000/svg">
<path d="M5.41173 7.38257H3.94116C3.16111 7.38257 2.41302 7.69244 1.86144 8.24401C1.30987 8.79559 1 9.54368 1 10.3237V23.5589C1 24.339 1.30987 25.0871 1.86144 25.6386C2.41302 26.1902 3.16111 26.5001 3.94116 26.5001H17.1764C17.9564 26.5001 18.7045 26.1902 19.2561 25.6386C19.8076 25.0871 20.1175 24.339 20.1175 23.5589V22.0883" stroke="#020716" stroke-width="2" stroke-linecap="round" stroke-linejoin="round"/>
<path d="M18.6476 4.44131L23.0593 8.85305M25.096 6.77218C25.6752 6.193 26.0006 5.40746 26.0006 4.58837C26.0006 3.76928 25.6752 2.98375 25.096 2.40456C24.5169 1.82538 23.7313 1.5 22.9122 1.5C22.0932 1.5 21.3076 1.82538 20.7284 2.40456L8.35352 14.7354V19.1471H12.7653L25.096 6.77218Z" stroke="#020716" stroke-width="2" stroke-linecap="round" stroke-linejoin="round"/>
</svg>
