<svg width="24" height="25" viewBox="0 0 24 25" fill="none" xmlns="http://www.w3.org/2000/svg">
<path d="M7 2.5C6.44772 2.5 6 2.94772 6 3.5V4.5H5C3.89543 4.5 3 5.39543 3 6.5V8.5H21V6.5C21 5.39543 20.1046 4.5 19 4.5H18V3.5C18 2.94772 17.5523 2.5 17 2.5H16C15.4477 2.5 15 2.94772 15 3.5V4.5H9V3.5C9 2.94772 8.55228 2.5 8 2.5H7Z" fill="#4D4D4D"/>
<path fill-rule="evenodd" clip-rule="evenodd" d="M21 10.5H3V19.5C3 20.6046 3.89543 21.5 5 21.5H19C20.1046 21.5 21 20.6046 21 19.5V10.5ZM6 13.5C6 12.9477 6.44772 12.5 7 12.5H9C9.55228 12.5 10 12.9477 10 13.5V14.5C10 15.0523 9.55228 15.5 9 15.5H7C6.44772 15.5 6 15.0523 6 14.5V13.5Z" fill="#4D4D4D"/>
</svg>
