<svg width="26" height="24" viewBox="0 0 26 24" fill="none" xmlns="http://www.w3.org/2000/svg">
<g clip-path="url(#clip0_5144_3558)">
<path d="M22.455 24C22.1139 24 21.7722 23.9979 21.4311 23.9966C21.0888 23.9946 20.7471 23.9932 20.4048 23.9932C20.4048 23.9932 16.9152 23.9932 15.1782 23.9932C10.3148 23.9932 6.34893 23.9919 2.69688 23.9878H2.68064C2.59536 23.9878 2.51007 23.9878 2.42421 23.9891C2.33951 23.9891 2.25481 23.9905 2.17011 23.9905C1.83188 23.9905 1.47161 23.981 1.13164 23.9099C0.505657 23.7792 0.0125293 23.0728 0.00904843 22.3021C-0.00487517 19.2158 -0.00429502 16.3483 0.0107889 13.5363C0.0154301 12.6735 0.737717 11.9414 1.5888 11.9367C2.19969 11.9333 2.86919 11.9319 3.6959 11.9319C4.12405 11.9319 4.55162 11.9319 4.97977 11.9326C5.40792 11.9326 5.83549 11.9333 6.26365 11.9333H8.1735V10.1839C8.1735 8.97704 8.17408 7.7898 8.17234 6.60325C8.17176 6.15422 8.27212 5.79325 8.47924 5.49932C8.82617 5.00763 9.26186 4.76855 9.81184 4.76855H9.82228C10.4587 4.77194 11.1015 4.77262 11.7014 4.77262H12.556C12.9406 4.77262 13.3252 4.77262 13.7099 4.77397H13.8723C14.0574 4.77397 14.2424 4.77397 14.4275 4.77262C14.612 4.77194 14.7965 4.77126 14.981 4.77126C15.3969 4.77126 15.8907 4.77465 16.3954 4.797C17.1821 4.83289 17.8005 5.58939 17.8034 6.51994C17.8092 8.3885 17.8092 10.2889 17.8098 12.1263C17.8098 12.8868 17.8098 13.6481 17.8098 14.4086V15.1144H20.5922C21.8088 15.113 23.0253 15.1123 24.2419 15.1116C24.8035 15.1116 25.2403 15.2898 25.5409 15.6406C25.8437 15.9948 25.9974 16.5122 25.9963 17.1786C25.994 18.7932 25.9963 20.4342 25.9974 22.0217C25.9986 23.1846 25.4121 23.9302 24.467 23.9668C23.8869 23.9898 23.2655 24 22.4527 24H22.455ZM9.64012 16.0645C9.6407 17.8586 9.64186 19.7136 9.6349 21.5375C9.63432 21.7122 9.65114 21.9343 9.79038 22.0969C9.93077 22.2615 10.1257 22.2804 10.2603 22.2804H10.2713C11.2744 22.2723 12.2595 22.2682 13.1993 22.2682C14.0446 22.2682 14.8818 22.2716 15.6876 22.2784H15.7004C15.8547 22.2784 16.0502 22.2574 16.1923 22.0908C16.3356 21.9235 16.3536 21.6892 16.3536 21.5036C16.3484 17.0554 16.3513 12.3843 16.3629 7.22497C16.3629 7.0543 16.3461 6.83758 16.2109 6.67842C16.0763 6.52062 15.8965 6.5003 15.7555 6.5003H15.7462C14.7547 6.50775 13.7499 6.51114 12.7607 6.51114C11.9242 6.51114 11.0771 6.50843 10.2423 6.50301H10.2336C10.0915 6.50301 9.91047 6.52333 9.77587 6.68113C9.6407 6.83961 9.62387 7.05566 9.62503 7.22632C9.63258 9.04747 9.632 10.8991 9.63083 12.6898C9.63083 13.2478 9.63083 14.7033 9.63083 14.7033H9.64012C9.64012 15.157 9.64012 15.6101 9.64012 16.0639V16.0645ZM18.3221 16.838C18.1619 16.838 18.0401 16.8894 17.9502 16.9944C17.815 17.1529 17.8156 17.3656 17.8156 17.4678C17.8179 18.3252 17.8185 19.1826 17.8185 20.04C17.8185 20.592 17.8185 21.1447 17.8197 21.6966C17.8197 21.7813 17.833 21.8565 17.8434 21.9167C17.8469 21.9357 17.8504 21.9547 17.8527 21.9743L17.8922 22.2587H24.5088V16.9179L24.2634 16.8732C24.2454 16.8698 24.2291 16.8664 24.2141 16.863C24.1706 16.8529 24.1207 16.842 24.0621 16.842C23.6478 16.842 21.7687 16.842 21.7687 16.842C20.6746 16.842 19.5073 16.842 18.3238 16.838H18.3215H18.3221ZM1.47393 22.2459H8.11664L8.14855 21.9499C8.15087 21.9296 8.15319 21.9113 8.15551 21.8951C8.16131 21.851 8.16712 21.8057 8.16712 21.7515C8.16712 21.0884 8.16712 20.4254 8.16712 19.7631C8.16712 17.9629 8.16712 16.1011 8.17176 14.2705C8.17176 14.194 8.17234 13.9603 8.03136 13.7951C7.90663 13.6488 7.74361 13.6298 7.61597 13.6298H7.60959C7.07063 13.6325 6.53109 13.6332 5.99213 13.6332C5.58487 13.6332 5.17702 13.6332 4.76976 13.6325C4.44081 13.6325 4.11187 13.6318 3.78292 13.6318H1.47393V22.2466V22.2459Z" fill="#32E100"/>
<path d="M13.2557 1.70737L12.9656 1.70466C12.9656 1.70466 10.6241 1.70466 10.6218 1.70466C10.0788 1.70466 9.53635 1.70466 8.99333 1.70398C8.49905 1.70398 8.17648 1.37619 8.17242 0.8696C8.1701 0.627141 8.2374 0.418546 8.36677 0.266162C8.51239 0.0954934 8.73401 0.000677258 8.99043 0.000677258C9.83281 0.000677258 10.6758 0 11.5181 0C13.3526 0 15.187 0.00135452 17.022 0.00338629C17.4908 0.00338629 17.8081 0.339306 17.8116 0.837091C17.8134 1.0809 17.7449 1.29221 17.6132 1.4473C17.4722 1.61391 17.2628 1.70601 17.0244 1.70669C16.4564 1.70805 15.8878 1.70872 15.3193 1.70872H13.2557V1.70737Z" fill="#32E100"/>
</g>
<defs>
<clipPath id="clip0_5144_3558">
<rect width="26" height="24" fill="white"/>
</clipPath>
</defs>
</svg>
