<svg width="21" height="22" viewBox="0 0 21 22" fill="none" xmlns="http://www.w3.org/2000/svg">
<path d="M6.45059 7.99593C7.14659 9.44555 8.09537 10.8042 9.29695 12.0058C10.4985 13.2073 11.8572 14.1561 13.3068 14.8521C13.4315 14.912 13.4938 14.9419 13.5727 14.9649C13.8531 15.0467 14.1973 14.988 14.4348 14.8179C14.5016 14.7701 14.5587 14.7129 14.673 14.5986C15.0226 14.249 15.1975 14.0742 15.3732 13.9599C16.0361 13.5289 16.8907 13.5289 17.5536 13.9599C17.7294 14.0742 17.9042 14.249 18.2538 14.5986L18.4486 14.7935C18.9801 15.3249 19.2458 15.5907 19.3902 15.876C19.6772 16.4436 19.6772 17.1139 19.3902 17.6814C19.2458 17.9668 18.9801 18.2325 18.4486 18.764L18.291 18.9216C17.7614 19.4512 17.4966 19.716 17.1365 19.9183C16.737 20.1427 16.1165 20.3041 15.6583 20.3027C15.2454 20.3015 14.9632 20.2214 14.3987 20.0612C11.3653 19.2002 8.50295 17.5757 6.11497 15.1877C3.72699 12.7998 2.10252 9.93741 1.24155 6.90401C1.08134 6.33957 1.00124 6.05734 1.00001 5.6444C0.998645 5.18618 1.16001 4.56568 1.38443 4.16618C1.58668 3.80615 1.85149 3.54133 2.38111 3.01171L2.53874 2.85408C3.07019 2.32263 3.33591 2.05691 3.62129 1.91257C4.18885 1.6255 4.85912 1.6255 5.42668 1.91257C5.71206 2.05691 5.97778 2.32263 6.50922 2.85408L6.70409 3.04895C7.0537 3.39855 7.2285 3.57335 7.34279 3.74913C7.77378 4.41202 7.77378 5.2666 7.34278 5.92949C7.2285 6.10527 7.0537 6.28008 6.70409 6.62968C6.58978 6.74399 6.53262 6.80115 6.48478 6.86796C6.31477 7.10539 6.25607 7.44965 6.33779 7.73C6.36079 7.8089 6.39072 7.87124 6.45059 7.99593Z" stroke="#32E100" stroke-width="2" stroke-linecap="round" stroke-linejoin="round"/>
</svg>
