<svg width="19" height="19" viewBox="0 0 19 19" fill="none" xmlns="http://www.w3.org/2000/svg">
<path d="M7.43274 12.4637V6.53631C7.43286 6.46215 7.45293 6.38938 7.49084 6.32564C7.52875 6.2619 7.58311 6.20953 7.64821 6.17402C7.71332 6.13851 7.78678 6.12116 7.86089 6.1238C7.93501 6.12643 8.00705 6.14895 8.06947 6.189L12.6804 9.15187C12.7388 9.18927 12.7868 9.24076 12.8201 9.3016C12.8534 9.36243 12.8708 9.43066 12.8708 9.5C12.8708 9.56934 12.8534 9.63757 12.8201 9.6984C12.7868 9.75924 12.7388 9.81073 12.6804 9.84814L8.06947 12.8118C8.00705 12.8519 7.93501 12.8744 7.86089 12.877C7.78678 12.8797 7.71332 12.8623 7.64821 12.8268C7.58311 12.7913 7.52875 12.7389 7.49084 12.6752C7.45293 12.6114 7.43286 12.5387 7.43274 12.4645V12.4637Z" fill="#32E100"/>
<path d="M0.403809 9.49996C0.403809 4.47641 4.47641 0.403809 9.49996 0.403809C14.5235 0.403809 18.5961 4.47641 18.5961 9.49996C18.5961 14.5235 14.5235 18.5961 9.49996 18.5961C4.47641 18.5961 0.403809 14.5235 0.403809 9.49996ZM9.49996 1.64419C7.41648 1.64419 5.41834 2.47185 3.94509 3.94509C2.47185 5.41834 1.64419 7.41648 1.64419 9.49996C1.64419 11.5834 2.47185 13.5816 3.94509 15.0548C5.41834 16.5281 7.41648 17.3557 9.49996 17.3557C11.5834 17.3557 13.5816 16.5281 15.0548 15.0548C16.5281 13.5816 17.3557 11.5834 17.3557 9.49996C17.3557 7.41648 16.5281 5.41834 15.0548 3.94509C13.5816 2.47185 11.5834 1.64419 9.49996 1.64419Z" fill="#32E100"/>
</svg>
