<svg width="20" height="20" viewBox="0 0 20 20" fill="none" xmlns="http://www.w3.org/2000/svg">
<g clip-path="url(#clip0_5144_3825)">
<path d="M12.6447 1.28702C12.4309 1.6496 12.2368 1.99475 12.0197 2.32566C11.9819 2.38265 11.8487 2.40799 11.7615 2.40482C10.977 2.38265 10.1908 2.33199 9.40625 2.32566C7.28618 2.30824 5.18092 2.46815 3.11842 2.96847C2.64145 3.08405 2.18092 3.27087 1.72039 3.44187C1.39638 3.5622 1.23684 3.76169 1.23849 4.14485C1.25493 8.4577 1.25 12.7721 1.24013 17.085C1.24013 17.3605 1.34539 17.522 1.57895 17.6471C2.22697 17.9906 2.93586 18.1616 3.64967 18.312C5.91447 18.787 8.20888 18.8899 10.5181 18.8203C11.926 18.7775 13.3257 18.6619 14.7089 18.4007C15.5099 18.2503 16.3026 18.0635 17.0477 17.7199C17.3832 17.5647 17.528 17.3589 17.5132 16.9789C17.4803 16.1018 17.5033 15.2246 17.5033 14.3222C17.1727 14.4425 16.8651 14.5707 16.5477 14.6657C15.4112 15.0046 14.2401 15.1819 13.0609 15.3149C11.4243 15.4986 9.7829 15.5365 8.1398 15.4891C6.28947 15.4352 4.46217 15.1993 2.66447 14.7687C2.60362 14.7544 2.51316 14.6879 2.51151 14.6452C2.5 14.2683 2.50493 13.8915 2.50493 13.4941C2.74342 13.5479 2.95724 13.5939 3.16941 13.6461C5.23684 14.1591 7.34211 14.3475 9.47204 14.3269C11.1875 14.3095 12.8964 14.2129 14.5855 13.9105C15.4128 13.7617 16.227 13.5654 17 13.2329C17.3569 13.0793 17.5395 12.8719 17.5164 12.4539C17.4737 11.6686 17.5049 10.8801 17.5066 10.0932C17.5066 9.98873 17.5066 9.88582 17.5066 9.78132C17.0477 9.93174 16.6086 10.098 16.1595 10.2199C15.0839 10.5128 13.9786 10.6569 12.8684 10.774C11.3816 10.9308 9.8898 10.972 8.39474 10.9419C6.99342 10.9134 5.60526 10.7661 4.22697 10.5255C3.65625 10.4257 3.09046 10.3022 2.51645 10.1898V8.93427C2.84211 9.0071 3.15954 9.0736 3.47368 9.14801C4.63487 9.42667 5.81414 9.60241 7.00822 9.67683C8.70395 9.78132 10.4013 9.78132 12.097 9.64833C13.3684 9.54858 14.6168 9.32376 15.8536 9.02927C16.0493 8.98335 16.2549 8.96277 16.4572 8.96118C17.2105 8.95327 17.9638 8.95802 18.7368 8.95802C18.7418 9.04035 18.75 9.11318 18.75 9.18601C18.75 11.8808 18.7467 14.5739 18.7549 17.2687C18.7566 17.8893 18.4079 18.2883 17.9079 18.5923C17.1941 19.0245 16.3947 19.2557 15.5839 19.4425C14.3816 19.7196 13.1562 19.8811 11.9243 19.9333C10.5362 19.9935 9.14309 20.022 7.75329 19.984C5.97697 19.9349 4.21053 19.7433 2.49342 19.2652C1.84868 19.0863 1.22862 18.8535 0.679276 18.472C0.230263 18.1585 0 17.7516 0 17.199C0.00822368 12.75 0.00657895 8.29937 0.00328947 3.85036C0.00328947 3.25979 0.342105 2.87505 0.815789 2.57898C1.61349 2.08025 2.51316 1.83484 3.43092 1.65118C5.97204 1.14453 8.54276 1.0622 11.125 1.15561C11.5493 1.17144 11.972 1.21578 12.3947 1.24744C12.4704 1.25378 12.5461 1.26961 12.6447 1.28544V1.28702Z" fill="#32E100"/>
<path d="M15.6038 7.51754C14.4327 7.51754 13.2617 7.48904 12.0923 7.52862C11.441 7.55079 10.9574 6.90481 11.3357 6.28891C12.5265 4.35098 13.691 2.39721 14.8702 0.451356C15.2337 -0.147124 15.9673 -0.151874 16.3275 0.441857C17.51 2.39404 18.6877 4.34781 19.862 6.30474C20.1531 6.78764 19.9706 7.31329 19.464 7.47479C19.3489 7.5112 19.2173 7.51437 19.0923 7.51595C17.9294 7.51912 16.7666 7.51754 15.6038 7.51754Z" fill="#32E100"/>
<path d="M10.2432 5.16307C10.0804 5.55731 9.93398 5.92622 9.77279 6.29037C9.75141 6.33787 9.65437 6.37903 9.59352 6.37903C8.77773 6.36637 7.95865 6.37112 7.14451 6.32362C5.67082 6.23654 4.21687 6.00221 2.77608 5.68872C2.57872 5.64598 2.48661 5.58106 2.49977 5.36732C2.52115 5.04433 2.5047 4.71976 2.5047 4.36035C5.06062 5.057 7.64615 5.26599 10.2399 5.16466L10.2432 5.16307Z" fill="#32E100"/>
</g>
<defs>
<clipPath id="clip0_5144_3825">
<rect width="20" height="20" fill="white"/>
</clipPath>
</defs>
</svg>
