<svg width="20" height="20" viewBox="0 0 20 20" fill="none" xmlns="http://www.w3.org/2000/svg">
<path d="M19.25 5.50599V12.113C19.2503 12.6337 19.1479 13.1493 18.9488 13.6304C18.7497 14.1115 18.4578 14.5487 18.0896 14.9169C17.7215 15.2851 17.2844 15.5772 16.8034 15.7764C16.3223 15.9756 15.8067 16.0781 15.286 16.078H12.643L10.463 18.258C10.4036 18.321 10.3319 18.3711 10.2524 18.4054C10.1728 18.4397 10.0871 18.4574 10.0005 18.4574C9.91392 18.4574 9.82822 18.4397 9.74869 18.4054C9.66916 18.3711 9.59747 18.321 9.53802 18.258L7.35802 16.078H4.71302C4.19238 16.078 3.67684 15.9754 3.19584 15.7762C2.71484 15.5769 2.2778 15.2848 1.9097 14.9166C1.54159 14.5484 1.24963 14.1113 1.05048 13.6303C0.851327 13.1492 0.748892 12.6336 0.749024 12.113V5.50599C0.749024 4.45467 1.16666 3.44642 1.91005 2.70302C2.65345 1.95963 3.66171 1.54199 4.71302 1.54199H15.285C16.3363 1.54199 17.3446 1.95963 18.088 2.70302C18.8314 3.44642 19.25 4.45467 19.25 5.50599Z" stroke="#32E100" stroke-width="1.5" stroke-linecap="round" stroke-linejoin="round"/>
<path d="M10.0001 9.33797C10.0868 9.33797 10.1727 9.32088 10.2529 9.28769C10.333 9.2545 10.4058 9.20584 10.4671 9.14451C10.5285 9.08318 10.5771 9.01037 10.6103 8.93023C10.6435 8.85009 10.6606 8.76421 10.6606 8.67747C10.6606 8.59073 10.6435 8.50484 10.6103 8.42471C10.5771 8.34457 10.5285 8.27176 10.4671 8.21042C10.4058 8.14909 10.333 8.10044 10.2529 8.06725C10.1727 8.03405 10.0868 8.01697 10.0001 8.01697C9.82492 8.01697 9.65692 8.08656 9.53306 8.21042C9.40919 8.33429 9.3396 8.50229 9.3396 8.67747C9.3396 8.85264 9.40919 9.02064 9.53306 9.14451C9.65692 9.26838 9.82492 9.33797 10.0001 9.33797ZM14.6251 9.33797C14.7118 9.33797 14.7977 9.32088 14.8779 9.28769C14.958 9.2545 15.0308 9.20584 15.0921 9.14451C15.1535 9.08318 15.2021 9.01037 15.2353 8.93023C15.2685 8.85009 15.2856 8.76421 15.2856 8.67747C15.2856 8.59073 15.2685 8.50484 15.2353 8.42471C15.2021 8.34457 15.1535 8.27176 15.0921 8.21042C15.0308 8.14909 14.958 8.10044 14.8779 8.06725C14.7977 8.03405 14.7118 8.01697 14.6251 8.01697C14.4499 8.01697 14.2819 8.08656 14.1581 8.21042C14.0342 8.33429 13.9646 8.50229 13.9646 8.67747C13.9646 8.85264 14.0342 9.02064 14.1581 9.14451C14.2819 9.26838 14.4499 9.33797 14.6251 9.33797ZM5.3751 9.33797C5.46184 9.33797 5.54773 9.32088 5.62786 9.28769C5.708 9.2545 5.78081 9.20584 5.84214 9.14451C5.90348 9.08318 5.95213 9.01037 5.98532 8.93023C6.01852 8.85009 6.0356 8.76421 6.0356 8.67747C6.0356 8.59073 6.01852 8.50484 5.98532 8.42471C5.95213 8.34457 5.90348 8.27176 5.84214 8.21042C5.78081 8.14909 5.708 8.10044 5.62786 8.06725C5.54773 8.03405 5.46184 8.01697 5.3751 8.01697C5.19992 8.01697 5.03192 8.08656 4.90806 8.21042C4.78419 8.33429 4.7146 8.50229 4.7146 8.67747C4.7146 8.85264 4.78419 9.02064 4.90806 9.14451C5.03192 9.26838 5.19992 9.33797 5.3751 9.33797Z" stroke="#32E100" stroke-width="1.5" stroke-linecap="round" stroke-linejoin="round"/>
</svg>
