<svg width="46" height="45" viewBox="0 0 46 45" fill="none" xmlns="http://www.w3.org/2000/svg">
<path fill-rule="evenodd" clip-rule="evenodd" d="M23 0C23.3745 0.000234026 23.7442 0.0846012 24.0817 0.246869C24.4192 0.409136 24.7159 0.645158 24.95 0.9375L34.95 13.4375C35.1675 13.6922 35.3315 13.9879 35.4325 14.3072C35.5335 14.6265 35.5692 14.9628 35.5377 15.2962C35.5062 15.6296 35.408 15.9533 35.249 16.248C35.09 16.5427 34.8734 16.8025 34.6121 17.0119C34.3507 17.2213 34.05 17.376 33.7277 17.467C33.4054 17.5579 33.0681 17.5832 32.7359 17.5413C32.4037 17.4993 32.0832 17.3911 31.7936 17.223C31.504 17.0548 31.2511 16.8302 31.05 16.5625L25.5 9.625V27.5C25.5 28.163 25.2366 28.7989 24.7678 29.2678C24.2989 29.7366 23.663 30 23 30C22.337 30 21.7011 29.7366 21.2322 29.2678C20.7634 28.7989 20.5 28.163 20.5 27.5V9.625L14.95 16.565C14.7489 16.8327 14.496 17.0573 14.2064 17.2255C13.9168 17.3936 13.5963 17.5018 13.2641 17.5438C12.9318 17.5857 12.5946 17.5604 12.2723 17.4695C11.95 17.3785 11.6493 17.2238 11.3879 17.0144C11.1266 16.805 10.91 16.5452 10.751 16.2505C10.592 15.9558 10.4938 15.6321 10.4623 15.2987C10.4308 14.9653 10.4665 14.629 10.5675 14.3097C10.6685 13.9904 10.8325 13.6947 11.05 13.44L21.05 0.94C21.2838 0.6472 21.5805 0.410702 21.918 0.247995C22.2555 0.0852883 22.6253 0.000534005 23 0ZM15.5 27.5V25H5.5C4.17392 25 2.90215 25.5268 1.96447 26.4645C1.02678 27.4021 0.5 28.6739 0.5 30V40C0.5 41.3261 1.02678 42.5979 1.96447 43.5355C2.90215 44.4732 4.17392 45 5.5 45H40.5C41.8261 45 43.0979 44.4732 44.0355 43.5355C44.9732 42.5979 45.5 41.3261 45.5 40V30C45.5 28.6739 44.9732 27.4021 44.0355 26.4645C43.0979 25.5268 41.8261 25 40.5 25H30.5V27.5C30.5 29.4891 29.7098 31.3968 28.3033 32.8033C26.8968 34.2098 24.9891 35 23 35C21.0109 35 19.1032 34.2098 17.6967 32.8033C16.2902 31.3968 15.5 29.4891 15.5 27.5ZM35.5 32.5C34.837 32.5 34.2011 32.7634 33.7322 33.2322C33.2634 33.7011 33 34.337 33 35C33 35.663 33.2634 36.2989 33.7322 36.7678C34.2011 37.2366 34.837 37.5 35.5 37.5H35.525C36.188 37.5 36.8239 37.2366 37.2928 36.7678C37.7616 36.2989 38.025 35.663 38.025 35C38.025 34.337 37.7616 33.7011 37.2928 33.2322C36.8239 32.7634 36.188 32.5 35.525 32.5H35.5Z" fill="white"/>
</svg>
