<svg width="45" height="45" viewBox="0 0 45 45" fill="none" xmlns="http://www.w3.org/2000/svg">
<path d="M22.0007 29.2499L15.7507 22.9999M22.0007 29.2499C24.9107 28.1431 27.7025 26.7472 30.334 25.0832M22.0007 29.2499V39.6665C22.0007 39.6665 28.3131 38.5207 30.334 35.4999C32.584 32.1249 30.334 25.0832 30.334 25.0832M15.7507 22.9999C16.8593 20.1237 18.2552 17.3667 19.9173 14.7707C22.3448 10.8894 25.7249 7.69372 29.7361 5.48756C33.7473 3.28139 38.2562 2.13814 42.834 2.16653C42.834 7.8332 41.209 17.7915 30.334 25.0832M15.7507 22.9999H5.33398C5.33398 22.9999 6.47982 16.6874 9.50065 14.6665C12.8757 12.4165 19.9173 14.6665 19.9173 14.6665M6.37565 32.3749C3.25065 34.9999 2.20898 42.7915 2.20898 42.7915C2.20898 42.7915 10.0007 41.7499 12.6257 38.6249C14.1048 36.8749 14.084 34.1874 12.4382 32.5624C11.6284 31.7895 10.5617 31.3429 9.44279 31.3083C8.3239 31.2737 7.23164 31.6535 6.37565 32.3749Z" stroke="#00B2FF" stroke-width="3" stroke-linecap="round" stroke-linejoin="round"/>
</svg>
