<svg width="39" height="46" viewBox="0 0 39 46" fill="none" xmlns="http://www.w3.org/2000/svg">
<path d="M24.7895 2.1665H12.7988C12.4248 2.1665 12.2379 2.1665 12.0728 2.22344C11.9269 2.27378 11.7939 2.35595 11.6836 2.46398C11.5589 2.58616 11.4753 2.75338 11.308 3.08781L2.55805 20.5878C2.15872 21.3865 1.95905 21.7858 2.00701 22.1104C2.04889 22.3939 2.20567 22.6476 2.44047 22.8118C2.70936 22.9998 3.15583 22.9998 4.04876 22.9998H16.977L10.727 43.8332L36.1293 17.4901C36.9863 16.6013 37.4148 16.1569 37.4399 15.7767C37.4617 15.4466 37.3254 15.1258 37.0727 14.9124C36.7816 14.6665 36.1642 14.6665 34.9296 14.6665H20.102L24.7895 2.1665Z" stroke="#32E100" stroke-width="3" stroke-linecap="round" stroke-linejoin="round"/>
</svg>
