<svg width="35" height="46" viewBox="0 0 35 46" fill="none" xmlns="http://www.w3.org/2000/svg">
<path d="M9.01804 30.2083L7.20833 43.8334L16.7675 38.0979C17.0793 37.9108 17.2352 37.8173 17.4016 37.7808C17.5488 37.7484 17.7012 37.7484 17.8484 37.7808C18.0148 37.8173 18.1707 37.9108 18.4825 38.0979L28.0417 43.8334L26.2332 30.2024M26.8456 6.85191C27.1673 7.63008 27.7849 8.24862 28.5626 8.57155L31.2894 9.70109C32.0676 10.0234 32.6859 10.6417 33.0082 11.42C33.3306 12.1982 33.3306 13.0726 33.0082 13.8508L31.8796 16.5758C31.5571 17.3544 31.5566 18.2297 31.8806 19.0079L33.0073 21.7321C33.1671 22.1175 33.2494 22.5307 33.2495 22.9479C33.2495 23.3652 33.1674 23.7784 33.0077 24.1639C32.848 24.5494 32.614 24.8996 32.3189 25.1946C32.0238 25.4896 31.6735 25.7236 31.2879 25.8831L28.5631 27.0118C27.7849 27.3336 27.1664 27.9512 26.8435 28.7289L25.714 31.4558C25.3916 32.2341 24.7734 32.8524 23.9952 33.1747C23.217 33.4971 22.3426 33.4971 21.5644 33.1747L18.8395 32.046C18.0613 31.7244 17.1872 31.7251 16.4095 32.0478L13.6826 33.1757C12.9049 33.4973 12.0313 33.4971 11.2537 33.175C10.4761 32.8529 9.85821 32.2353 9.53564 31.4579L8.40581 28.7302C8.08406 27.952 7.46648 27.3335 6.68882 27.0105L3.96198 25.881C3.18412 25.5588 2.56603 24.9409 2.24357 24.1631C1.92111 23.3853 1.92067 22.5113 2.24235 21.7332L3.37104 19.0082C3.69258 18.23 3.69193 17.3559 3.36921 16.5781L2.24214 13.8492C2.08235 13.4638 2.00007 13.0506 2 12.6334C1.99993 12.2161 2.08208 11.8029 2.24175 11.4174C2.40143 11.0319 2.63549 10.6817 2.93057 10.3867C3.22566 10.0917 3.57597 9.85771 3.96151 9.69816L6.6864 8.56943C7.46386 8.24795 8.08201 7.63112 8.40516 6.85434L9.53466 4.12739C9.857 3.34916 10.4753 2.73086 11.2535 2.40851C12.0317 2.08616 12.906 2.08616 13.6842 2.40851L16.4091 3.53724C17.1874 3.8588 18.0614 3.85814 18.8391 3.53541L21.5671 2.41026C22.3452 2.08809 23.2194 2.08816 23.9975 2.41045C24.7755 2.73273 25.3937 3.35085 25.7161 4.12888L26.8459 6.85664L26.8456 6.85191Z" stroke="#F52323" stroke-width="3" stroke-linecap="round" stroke-linejoin="round"/>
</svg>
