<svg width="46" height="46" viewBox="0 0 46 46" fill="none" xmlns="http://www.w3.org/2000/svg">
<path d="M16.5833 22.9998L20.75 27.1665L30.125 17.7915M35.1275 8.41339C35.5565 9.45095 36.3799 10.2757 37.4168 10.7062L41.0526 12.2123C42.0902 12.6421 42.9145 13.4665 43.3443 14.5041C43.7741 15.5418 43.7741 16.7076 43.3443 17.7453L41.8394 21.3786C41.4094 22.4167 41.4088 23.5837 41.8408 24.6213L43.3431 28.2536C43.5561 28.7675 43.6658 29.3184 43.6659 29.8747C43.666 30.4311 43.5565 30.982 43.3436 31.496C43.1307 32.01 42.8186 32.477 42.4252 32.8703C42.0317 33.2636 41.5646 33.5756 41.0506 33.7883L37.4174 35.2933C36.3799 35.7223 35.5552 36.5458 35.1246 37.5827L33.6186 41.2186C33.1889 42.2563 32.3645 43.0807 31.3269 43.5105C30.2893 43.9403 29.1235 43.9403 28.0859 43.5105L24.4527 42.0055C23.415 41.5768 22.2496 41.5776 21.2127 42.0079L17.5769 43.5118C16.5398 43.9406 15.375 43.9403 14.3383 43.5108C13.3015 43.0814 12.4776 42.2579 12.0475 41.2214L10.5411 37.5844C10.1121 36.5468 9.28863 35.7221 8.25176 35.2916L4.61597 33.7855C3.57882 33.3559 2.7547 32.532 2.32475 31.495C1.89481 30.4579 1.89423 29.2926 2.32313 28.2551L3.82805 24.6218C4.25678 23.5842 4.2559 22.4187 3.82562 21.3817L2.32286 17.7431C2.1098 17.2292 2.00009 16.6783 2 16.122C1.99991 15.5656 2.10944 15.0147 2.32234 14.5007C2.53524 13.9867 2.84732 13.5197 3.24077 13.1264C3.63421 12.7331 4.1013 12.4211 4.61534 12.2084L8.24853 10.7034C9.28515 10.2748 10.1093 9.45234 10.5402 8.41662L12.0462 4.78069C12.476 3.74306 13.3004 2.91866 14.338 2.48886C15.3756 2.05905 16.5414 2.05905 17.579 2.48886L21.2122 3.99383C22.2498 4.42257 23.4152 4.4217 24.4522 3.99139L28.0895 2.49119C29.127 2.06163 30.2926 2.06172 31.33 2.49143C32.3673 2.92115 33.1916 3.74531 33.6215 4.78268L35.1279 8.41969L35.1275 8.41339Z" stroke="#32E100" stroke-width="3" stroke-linecap="round" stroke-linejoin="round"/>
</svg>
